<svg xmlns="http://www.w3.org/2000/svg" xmlns:xlink="http://www.w3.org/1999/xlink" viewBox="0 0 42 49" version="1.1">
    <g id="Page-1" stroke="none" stroke-width="1" fill="none" fill-rule="evenodd">
        <g id="Hexagon---Swag,-goodies" transform="translate(-104.000000, -30.000000)">
            <g id="hexagon-node.js" transform="translate(104.000000, 30.000000)">
                <polygon id="Polygon" fill="#8CC84B" points="21 0 42 12.25 42 36.75 21 49 1.9095836e-14 36.75 5.32907052e-15 12.25"></polygon>
                <g id="Group" transform="translate(6.000000, 8.000000)" fill-rule="nonzero" fill="#FFFFFF">
                <path d="M16.7462066,0.62025601 C20.8029549,2.88340723 24.8611029,5.14310326 28.9171512,7.40763655 C29.6800663,7.8319342 30.1903095,8.67016396 30.1826103,9.53810836 L30.1826103,23.1543317 C30.1882096,24.0582102 29.6275721,24.91648 28.8226618,25.3311031 C24.779212,27.5818157 20.737862,29.8352923 16.6951124,32.086005 C15.8713041,32.5510739 14.7990234,32.5151397 14.0011123,32.0120638 C12.7888474,31.3182611 11.5744825,30.6279135 10.3622176,29.9348019 C10.1144452,29.7889928 9.83517628,29.6728982 9.66019578,29.4358721 C9.81487854,29.2299426 10.0913478,29.2043741 10.3160227,29.1145391 C10.8220664,28.9556002 11.2868146,28.7006072 11.7515628,28.4532153 C11.8691497,28.3737459 12.0126338,28.4041516 12.1253213,28.4753285 C13.1619058,29.0620202 14.1893914,29.665988 15.2294755,30.2471512 C15.4513508,30.3736114 15.6760258,30.205689 15.8657047,30.1013422 C19.8335628,27.8872546 23.8063203,25.6814598 27.7734786,23.4666811 C27.9204622,23.3968862 28.0016532,23.2427846 27.9897545,23.0838458 C27.9925541,18.5920954 27.9904545,14.0996538 27.9911543,9.60790325 C28.0079524,9.4275422 27.9022642,9.26169295 27.7370825,9.18775182 C23.7076313,6.94740489 19.6802798,4.70360275 15.6515285,2.46256476 C15.5073446,2.36581936 15.3211653,2.36512832 15.1769815,2.46187372 C11.1482301,4.70360275 7.1215785,6.94947799 3.09282715,9.18982493 C2.92834547,9.26376607 2.81775778,9.42685115 2.8373556,9.60790325 C2.83805552,14.0996538 2.8373556,18.5920954 2.8373556,23.0845367 C2.82335716,23.2434757 2.91014749,23.3941221 3.0564312,23.4625349 C4.13151147,24.0644295 5.20799159,24.6621778 6.28377178,25.2619992 C6.88990429,25.5840232 7.63392143,25.775441 8.30164707,25.5287402 C8.89098143,25.3200466 9.30393545,24.7264445 9.2927367,24.1086559 C9.29833608,19.643165 9.28993701,15.1769828 9.29693622,10.7121828 C9.28223786,10.5138548 9.47261666,10.3500786 9.66789492,10.3687367 C10.1844374,10.3652815 10.7016798,10.3618263 11.2182223,10.3701188 C11.4337983,10.3652815 11.5821817,10.5788124 11.5555846,10.7785225 C11.553485,15.2723463 11.561184,19.7661698 11.552085,24.2599934 C11.553485,25.4575632 11.0551404,26.7608619 9.93316537,27.3468625 C8.55081933,28.0537949 6.8423096,27.9038396 5.47676166,27.2259308 C4.29459332,26.6433853 3.16631896,25.955802 2.00514828,25.3317941 C1.19813815,24.9192442 0.640300274,24.0575191 0.645899655,23.1543317 L0.645899655,9.53810836 C0.637500584,8.65219695 1.16804151,7.79876436 1.95475389,7.38068604 C5.99750367,5.12790041 10.0395535,2.8737327 14.0816034,0.62025601 C14.8886134,0.164170577 15.9398964,0.162097459 16.7462066,0.62025601 Z" id="Shape"></path>
                <path d="M22.6463622,11.0136048 C23.8703178,11.6689961 24.5488982,13.0445596 24.5705179,14.3884219 C24.5363446,14.5696709 24.3445569,14.6695992 24.1695068,14.6571942 C23.6596997,14.656505 23.1498927,14.6640859 22.6400856,14.6537484 C22.4238883,14.6620183 22.2983543,14.4649186 22.2711553,14.2760887 C22.1246991,13.6331023 21.7697171,12.9963185 21.1573907,12.6861964 C20.2172813,12.2210133 19.1272286,12.2444448 18.1020352,12.254093 C17.3537136,12.2933751 16.5489019,12.3574669 15.9149557,12.7923271 C15.4281632,13.1217455 15.280312,13.786785 15.4539673,14.3222624 C15.6178588,14.7068138 16.0669912,14.8308626 16.4345265,14.9452633 C18.5518649,15.4924563 20.7954345,15.4380127 22.8723232,16.158185 C23.7322303,16.4517672 24.5733074,17.0223917 24.8676147,17.9120974 C25.2525853,19.1043443 25.083812,20.5295275 24.2252997,21.4867709 C23.529284,22.2744808 22.515249,22.7031384 21.5040037,22.9360746 C20.1586988,23.2324134 18.7624828,23.2399941 17.3962558,23.1083646 C16.1116254,22.9636409 14.7746896,22.6300875 13.7829716,21.7651914 C12.9349206,21.0374385 12.5206586,19.9037701 12.5618059,18.8093838 C12.5715696,18.6246889 12.7577782,18.495816 12.9370127,18.5109775 C13.4503069,18.5068425 13.9636011,18.5054643 14.4768952,18.5116667 C14.6819339,18.4971943 14.8339694,18.672241 14.8444306,18.8631384 C14.9392784,19.4758017 15.1722135,20.1187882 15.7127066,20.4819754 C16.7560328,21.1470149 18.0650723,21.1015304 19.2597367,21.1201377 C20.2493622,21.0767206 21.3603371,21.0636265 22.1679386,20.4171943 C22.5940564,20.0484937 22.7202877,19.4316955 22.605215,18.9010421 C22.4803785,18.4530881 22.0061394,18.2442725 21.5988515,18.1078188 C19.5087123,17.4544951 17.2400357,17.6915661 15.1701212,16.9527865 C14.3297416,16.6592043 13.5172582,16.1044304 13.1943572,15.2512503 C12.74383,14.0438417 12.9502636,12.5504318 13.8987418,11.625579 C14.8235082,10.7055503 16.1583521,10.351322 17.4276391,10.2245165 C19.1844163,10.1128726 21.0653325,10.1583571 22.6463622,11.0136048 Z" id="Shape"></path>
                </g>
            </g>
        </g>
    </g>
</svg>